<svg width="115" height="115" viewBox="0 0 115 115" fill="none" xmlns="http://www.w3.org/2000/svg">
<mask id="path-1-inside-1_19_71" fill="white">
<path d="M87.5761 67.3197C92.393 68.8924 97.6778 66.214 98.0721 61.1649C98.5397 55.176 97.6775 49.1021 95.4991 43.3899C92.2129 34.7731 86.1249 27.4857 78.2239 22.7116C70.323 17.9375 61.0734 15.9572 51.9778 17.0925C42.8822 18.2278 34.4751 22.4118 28.1222 28.965C21.7692 35.5182 17.8438 44.0554 16.9836 53.1898C16.1233 62.3241 18.3789 71.5189 23.3837 79.2804C28.3886 87.0418 35.8487 92.9139 44.5522 95.9427C50.3195 97.9497 56.4083 98.63 62.3724 97.9834C67.4098 97.4372 69.9288 92.0783 68.2157 87.3124C66.5236 82.6047 61.2555 80.3447 56.2617 80.0089C54.2547 79.8739 52.2581 79.4704 50.3266 78.7982C45.5047 77.1202 41.3716 73.8669 38.5987 69.5669C35.8259 65.2668 34.5763 60.1727 35.0529 55.112C35.5295 50.0514 37.7042 45.3215 41.2239 41.6909C44.7436 38.0603 49.4014 35.7422 54.4406 35.1132C59.4798 34.4843 64.6043 35.5814 68.9816 38.2264C73.3589 40.8713 76.7318 44.9087 78.5524 49.6827C79.2867 51.6081 79.7511 53.6077 79.9438 55.6257C80.4182 60.5923 82.8306 65.7703 87.5761 67.3197Z"/>
</mask>
<path d="M87.5761 67.3197C92.393 68.8924 97.6778 66.214 98.0721 61.1649C98.5397 55.176 97.6775 49.1021 95.4991 43.3899C92.2129 34.7731 86.1249 27.4857 78.2239 22.7116C70.323 17.9375 61.0734 15.9572 51.9778 17.0925C42.8822 18.2278 34.4751 22.4118 28.1222 28.965C21.7692 35.5182 17.8438 44.0554 16.9836 53.1898C16.1233 62.3241 18.3789 71.5189 23.3837 79.2804C28.3886 87.0418 35.8487 92.9139 44.5522 95.9427C50.3195 97.9497 56.4083 98.63 62.3724 97.9834C67.4098 97.4372 69.9288 92.0783 68.2157 87.3124C66.5236 82.6047 61.2555 80.3447 56.2617 80.0089C54.2547 79.8739 52.2581 79.4704 50.3266 78.7982C45.5047 77.1202 41.3716 73.8669 38.5987 69.5669C35.8259 65.2668 34.5763 60.1727 35.0529 55.112C35.5295 50.0514 37.7042 45.3215 41.2239 41.6909C44.7436 38.0603 49.4014 35.7422 54.4406 35.1132C59.4798 34.4843 64.6043 35.5814 68.9816 38.2264C73.3589 40.8713 76.7318 44.9087 78.5524 49.6827C79.2867 51.6081 79.7511 53.6077 79.9438 55.6257C80.4182 60.5923 82.8306 65.7703 87.5761 67.3197Z" fill="white" stroke="black" stroke-width="2" mask="url(#path-1-inside-1_19_71)"/>
<rect x="0.706235" y="-0.0390983" width="16.9803" height="37.96" rx="8.49017" transform="matrix(0.66716 -0.744914 0.74531 0.666718 56.8547 70.3512)" fill="#00B081" stroke="white"/>
</svg>
